<svg xmlns="http://www.w3.org/2000/svg" xmlns:xlink="http://www.w3.org/1999/xlink" width="78" height="125" viewBox="0 0 78 125">
  <defs>
    <clipPath id="a">
      <rect x="0.7" y="8.5" width="76.6" height="108.03" fill="none"/>
    </clipPath>
  </defs>
  <g clip-path="url(#a)">
    <path d="M39,116.5c-12.1,0-21.9-2.7-21.9-6.1s9.8-6.1,21.9-6.1,21.9,2.7,21.9,6.1-9.8,6.1-21.9,6.1" fill="#9498a2"/>
    <path d="M37.9,9.7h2.2c26.6.6,42.7,27.2,33.4,49.6a33.3,33.3,0,0,1-4.3,7.8l-2.3,3.2-1.6,2.1L50,93.4h0l-5.3,7.2h0L39,108.4l-5.7-7.8-5.5-7.5h-.1L13.3,73.3h0l-2.2-2.9L8.8,67.1a33.3,33.3,0,0,1-4.3-7.8c-9.2-22.4,6.8-49,33.4-49.6" fill="#223d4d"/>
    <path d="M39,109.5a1,1,0,0,1-.9-.4L26.9,93.8h-.1L12.4,74l-.2-.4L7.9,67.8a33.2,33.2,0,0,1-4.5-8.1A36.7,36.7,0,0,1,6.9,25.6a37.4,37.4,0,0,1,31-17.1h2.2A37.5,37.5,0,0,1,71.2,25.6a37,37,0,0,1,3.4,34.1,33.2,33.2,0,0,1-4.5,8.1l-3.9,5.3L51,94.1l-.2.2-5.1,7-.3.3-5.5,7.5a1,1,0,0,1-.9.4ZM28.6,92.2v.2l10.3,14,4.7-6.5.2-.2,5.2-7,.2-.2,18.9-26a34.8,34.8,0,0,0,1-39.6,34.9,34.9,0,0,0-29.1-16H37.9A35.2,35.2,0,0,0,8.8,26.8a34.5,34.5,0,0,0-3.2,32,32.2,32.2,0,0,0,4.1,7.7l4.5,6,.2.4Z" fill="#223d4d"/>
    <path d="M39,48.1h0" fill="#fff"/>
    <path d="M66.7,46.8A27.7,27.7,0,1,1,39,19.1,27.7,27.7,0,0,1,66.7,46.8" fill="#fff"/>
    <path d="M60.7,46.8A21.7,21.7,0,1,1,39,25.1,21.7,21.7,0,0,1,60.7,46.8" fill="#f3722b"/>
    <path d="M32.5,56.6l.8.2.8-.2,14.2-8.4a1.5,1.5,0,0,0,.8-1.4,1.6,1.6,0,0,0-.8-1.4L34.1,37a1.5,1.5,0,0,0-1.6,0,1.6,1.6,0,0,0-.9,1.5V55.1a1.6,1.6,0,0,0,.9,1.5" fill="#fff"/>
  </g>
</svg>
