<svg xmlns="http://www.w3.org/2000/svg" xmlns:xlink="http://www.w3.org/1999/xlink" width="78" height="125" viewBox="0 0 78 125">
  <defs>
    <clipPath id="a">
      <rect x="0.5" y="8.2" width="76.9" height="108.51" fill="none"/>
    </clipPath>
    <clipPath id="b">
      <path d="M11.2,46.7A27.8,27.8,0,1,0,39,18.9,27.7,27.7,0,0,0,11.2,46.7" fill="none"/>
    </clipPath>
  </defs>
  <g>
    <g clip-path="url(#a)">
      <path d="M39,116.8c-12.1,0-22-2.8-22-6.2s9.9-6.2,22-6.2,22,2.8,22,6.2-9.9,6.2-22,6.2" fill="#9498a2"/>
      <path d="M37.9,9.5h2.2c26.7.6,42.9,27.3,33.6,49.8a41.4,41.4,0,0,1-4.4,7.9l-2.2,3.1-1.7,2.2-15.3,21H50l-5.3,7.3h0L39,108.6l-5.8-7.8-5.5-7.6h0L13.2,73.4v-.2L11,70.3,8.7,67.2a36.6,36.6,0,0,1-4.4-7.9C-4.9,36.8,11.2,10.1,37.9,9.5" fill="#223d4d"/>
      <path d="M39,109.8a1.1,1.1,0,0,1-.9-.5L26.8,93.9h-.1L12.2,74v-.3L7.7,67.9a39.8,39.8,0,0,1-4.5-8.2A37.6,37.6,0,0,1,37.9,8.3h.4a2.9,2.9,0,0,1,1.3,0h.5A37.6,37.6,0,0,1,71.3,25.4a37.1,37.1,0,0,1,3.4,34.3,32.6,32.6,0,0,1-4.4,8.1l-3.9,5.4L51,94.2l-.2.2-5.1,7.1-.2.2-5.6,7.6a1.1,1.1,0,0,1-.9.5ZM28.6,92.4h.1L39,106.6l4.7-6.5.3-.2,5.1-7.1.2-.2L68.4,66.5a34.4,34.4,0,0,0,4.2-7.6,34.8,34.8,0,0,0-3.2-32.2A35.6,35.6,0,0,0,40.1,10.6H37.9A35.4,35.4,0,0,0,8.7,26.7,34.4,34.4,0,0,0,5.4,58.8a32.8,32.8,0,0,0,4.2,7.7l4.5,6,.2.4Z" fill="#223d4d"/>
      <path d="M39,48h0" fill="#fff"/>
      <path d="M66.8,46.7A27.8,27.8,0,1,1,39,18.9,27.7,27.7,0,0,1,66.8,46.7" fill="#fff"/>
    </g>
    <g clip-path="url(#b)">
      <path d="M52,53.1a13.5,13.5,0,0,0,3.1-14.2l-8.2,8.2a1.8,1.8,0,0,1-2.4,0L39,41.5a1.5,1.5,0,0,1,0-2.3L47.2,31A13.4,13.4,0,0,0,30.5,49.7L1.1,79a2.5,2.5,0,0,0,0,3.6l2.4,2.3a2.4,2.4,0,0,0,3.5,0L36.4,55.6A13.4,13.4,0,0,0,52,53.1" fill="#f3722b"/>
    </g>
  </g>
</svg>
