<svg xmlns="http://www.w3.org/2000/svg" xmlns:xlink="http://www.w3.org/1999/xlink" width="96" height="125" viewBox="0 0 96 125">
  <defs>
    <clipPath id="a">
      <rect x="9.7" y="8.5" width="76.6" height="108.03" fill="none"/>
    </clipPath>
  </defs>
  <g clip-path="url(#a)">
    <path d="M48,116.5c-12.1,0-21.9-2.7-21.9-6.1s9.8-6.1,21.9-6.1,21.8,2.7,21.8,6.1-9.7,6.1-21.8,6.1" fill="#9498a2"/>
    <path d="M46.9,9.7h2.2c26.5.6,42.6,27.2,33.4,49.6a33.3,33.3,0,0,1-4.3,7.8l-2.3,3.2-1.6,2.1L59,93.4h0l-5.3,7.2h-.1L48,108.4l-5.8-7.8-5.5-7.5h0L22.3,73.3h0l-2.2-2.9-2.3-3.2a33.3,33.3,0,0,1-4.3-7.8c-9.2-22.4,6.8-49,33.4-49.6" fill="#223d4d"/>
    <path d="M48,109.5a1.3,1.3,0,0,1-1-.4L35.9,93.8h-.1L21.3,74v-.3l-4.3-5.9a30.1,30.1,0,0,1-4.5-8.1,36.4,36.4,0,0,1,3.5-34.1,37.3,37.3,0,0,1,31-17.1h2.2a37.7,37.7,0,0,1,31,17.1,36.9,36.9,0,0,1-1,42.2l-3.9,5.3L60,94.1l-.3.2-5.1,7-.2.3-5.5,7.5a1.1,1.1,0,0,1-.9.4ZM37.6,92.3h.1l10.3,14,4.7-6.4.2-.3,5.1-7,.3-.2,18.9-26a34.8,34.8,0,0,0,1-39.6,35.1,35.1,0,0,0-29.1-16H46.9A35.2,35.2,0,0,0,17.8,26.8a34.8,34.8,0,0,0-3.3,32,37,37,0,0,0,4.2,7.7l4.5,6,.2.4Z" fill="#223d4d"/>
    <path d="M48,48.1h0" fill="#fff"/>
    <path d="M75.7,46.8A27.7,27.7,0,1,1,48,19.1,27.7,27.7,0,0,1,75.7,46.8" fill="#fff"/>
    <path d="M69.7,46.8A21.7,21.7,0,1,1,48,25.1,21.7,21.7,0,0,1,69.7,46.8" fill="#f3722b"/>
    <path d="M41.4,56.6l.9.2.8-.2,14.2-8.4a1.5,1.5,0,0,0,.8-1.4,1.6,1.6,0,0,0-.8-1.4L43.1,37.1a1.5,1.5,0,0,0-1.7-.1,1.8,1.8,0,0,0-.8,1.5V55.1a1.6,1.6,0,0,0,.8,1.5" fill="#fff"/>
  </g>
</svg>
