<svg xmlns="http://www.w3.org/2000/svg" width="78" height="125"><defs><clipPath id="a"><path fill="none" d="M.7 8.5h76.6v108.03H.7z"/></clipPath></defs><g clip-path="url(#a)"><path d="M39 116.5c-12.1 0-21.9-2.7-21.9-6.1s9.8-6.1 21.9-6.1 21.9 2.7 21.9 6.1-9.8 6.1-21.9 6.1" fill="#9498a2"/><path d="M37.9 9.7h2.2c26.6.6 42.7 27.2 33.4 49.6a33.3 33.3 0 01-4.3 7.8l-2.3 3.2-1.6 2.1-15.3 21-5.3 7.2-5.7 7.8-5.7-7.8-5.5-7.5h-.1L13.3 73.3l-2.2-2.9-2.3-3.3a33.3 33.3 0 01-4.3-7.8c-9.2-22.4 6.8-49 33.4-49.6" fill="#223d4d"/><path d="M39 109.5a1 1 0 01-.9-.4L26.9 93.8h-.1L12.4 74l-.2-.4-4.3-5.8a33.2 33.2 0 01-4.5-8.1 36.7 36.7 0 013.5-34.1 37.4 37.4 0 0131-17.1h2.2a37.5 37.5 0 0131.1 17.1 37 37 0 013.4 34.1 33.2 33.2 0 01-4.5 8.1l-3.9 5.3-15.2 21-.2.2-5.1 7-.3.3-5.5 7.5a1 1 0 01-.9.4zM28.6 92.2v.2l10.3 14 4.7-6.5.2-.2 5.2-7 .2-.2 18.9-26a34.8 34.8 0 001-39.6 34.9 34.9 0 00-29.1-16h-2.1A35.2 35.2 0 008.8 26.8a34.5 34.5 0 00-3.2 32 32.2 32.2 0 004.1 7.7l4.5 6 .2.4z" fill="#223d4d"/><path d="M66.7 46.8A27.7 27.7 0 1139 19.1a27.7 27.7 0 0127.7 27.7" fill="#fff"/><path d="M60.7 46.8A21.7 21.7 0 1139 25.1a21.7 21.7 0 0121.7 21.7" fill="#f3722b"/><path d="M32.5 56.6l.8.2.8-.2 14.2-8.4a1.5 1.5 0 00.8-1.4 1.6 1.6 0 00-.8-1.4L34.1 37a1.5 1.5 0 00-1.6 0 1.6 1.6 0 00-.9 1.5v16.6a1.6 1.6 0 00.9 1.5" fill="#fff"/></g></svg>