<svg xmlns="http://www.w3.org/2000/svg" width="78" height="125"><defs><clipPath id="a"><path fill="none" d="M.5 8.2h76.9v108.51H.5z"/></clipPath></defs><g clip-path="url(#a)"><path d="M39 116.8c-12.1 0-22-2.8-22-6.2s9.9-6.2 22-6.2 22 2.8 22 6.2-9.9 6.2-22 6.2" fill="#9498a2"/><path d="M37.9 9.5h2.2c26.7.6 42.9 27.3 33.6 49.8a41.4 41.4 0 01-4.4 7.9l-2.2 3.1-1.7 2.2-15.3 21H50l-5.3 7.3-5.7 7.8-5.8-7.8-5.5-7.6-14.5-19.8v-.2L11 70.3l-2.3-3.1a36.6 36.6 0 01-4.4-7.9c-9.2-22.5 6.9-49.2 33.6-49.8" fill="#223d4d"/><path d="M39 109.8a1.1 1.1 0 01-.9-.5L26.8 93.9h-.1L12.2 74v-.3l-4.5-5.8a39.8 39.8 0 01-4.5-8.2A37.6 37.6 0 0137.9 8.3h.4a2.9 2.9 0 011.3 0h.5a37.6 37.6 0 0131.2 17.1 37.1 37.1 0 013.4 34.3 32.6 32.6 0 01-4.4 8.1l-3.9 5.4-15.4 21-.2.2-5.1 7.1-.2.2-5.6 7.6a1.1 1.1 0 01-.9.5zM28.6 92.4h.1L39 106.6l4.7-6.5.3-.2 5.1-7.1.2-.2 19.1-26.1a34.4 34.4 0 004.2-7.6 34.8 34.8 0 00-3.2-32.2 35.6 35.6 0 00-29.3-16.1h-2.2A35.4 35.4 0 008.7 26.7a34.4 34.4 0 00-3.3 32.1 32.8 32.8 0 004.2 7.7l4.5 6 .2.4z" fill="#223d4d"/><path d="M66.8 46.7A27.8 27.8 0 1139 18.9a27.7 27.7 0 0127.8 27.8" fill="#fff"/></g><path fill="#f3722b" d="M24.1 27.2v35.3h29.8V36l-8.5-8.8H24.1z"/><path fill="#fff" d="M27.1 53.6h23.7v3.08H27.1zm0-6.2h23.7v3.08H27.1zm0-6.1h23.7v3.08H27.1z"/></svg>