<svg xmlns="http://www.w3.org/2000/svg" width="96" height="125"><defs><clipPath id="a"><path fill="none" d="M9.7 8.5h76.6v108.03H9.7z"/></clipPath></defs><g clip-path="url(#a)"><path d="M48 116.5c-12.1 0-21.9-2.7-21.9-6.1s9.8-6.1 21.9-6.1 21.8 2.7 21.8 6.1-9.7 6.1-21.8 6.1" fill="#9498a2"/><path d="M46.9 9.7h2.2c26.5.6 42.6 27.2 33.4 49.6a33.3 33.3 0 01-4.3 7.8l-2.3 3.2-1.6 2.1-15.3 21-5.3 7.2h-.1l-5.6 7.8-5.8-7.8-5.5-7.5-14.4-19.8-2.2-2.9-2.3-3.2a33.3 33.3 0 01-4.3-7.8C4.3 37 20.3 10.4 46.9 9.8" fill="#223d4d"/><path d="M48 109.5a1.3 1.3 0 01-1-.4L35.9 93.8h-.1L21.3 74v-.3L17 67.8a30.1 30.1 0 01-4.5-8.1A36.4 36.4 0 0116 25.6 37.3 37.3 0 0147 8.5h2.2a37.7 37.7 0 0131 17.1 36.9 36.9 0 01-1 42.2l-3.9 5.3-15.3 21-.3.2-5.1 7-.2.3-5.5 7.5a1.1 1.1 0 01-.9.4zM37.6 92.3h.1l10.3 14 4.7-6.4.2-.3 5.1-7 .3-.2 18.9-26a34.8 34.8 0 001-39.6 35.1 35.1 0 00-29.1-16h-2.2a35.2 35.2 0 00-29.1 16 34.8 34.8 0 00-3.3 32 37 37 0 004.2 7.7l4.5 6 .2.4z" fill="#223d4d"/><path d="M75.7 46.8A27.7 27.7 0 1148 19.1a27.7 27.7 0 0127.7 27.7" fill="#fff"/><path d="M69.7 46.8A21.7 21.7 0 1148 25.1a21.7 21.7 0 0121.7 21.7" fill="#f3722b"/><path d="M41.4 56.6l.9.2.8-.2 14.2-8.4a1.5 1.5 0 00.8-1.4 1.6 1.6 0 00-.8-1.4l-14.2-8.3a1.5 1.5 0 00-1.7-.1 1.8 1.8 0 00-.8 1.5v16.6a1.6 1.6 0 00.8 1.5" fill="#fff"/></g></svg>